# xmcd
#
# Track frame offsets:
#	150
#	13540
#	35642
#	48072
#	62220
#	75097
#	93830
#	109662
#	122347
#	135347
#	155152
#	170665
#	182675
#	194395
#	207437
#	227107
#	240484
#	254907
#	275577
#
# Disc length: 3919 seconds
#
# Revision: 0
# Processed by: cddbd v1.4PL0 Copyright (c) Steve Scherf et al.
# Submitted via: EasyCDDAExtractor 4.6.0.1
#
DISCID=fe0f4d13
DTITLE=lewton
DYEAR=2001
DGENRE=Country
TTITLE0=Moon River
TTITLE1=Killing Me Softly with His Song
TTITLE2=Love Me Tender
TTITLE3=The Way We Ware
TTITLE4=I Dont Like to Sleep Alone
TTITLE5=Before the Next Teardrops Fall
TTITLE6=I Dont Know How to Love Him
TTITLE7=When will I see you again
TTITLE8=Are you lonesome tonight
TTITLE9=How Can I Tell Her
TTITLE10=Rain and Tears
TTITLE11=The Creat Pretender
TTITLE12=Daddy's Home
TTITLE13=El Condor Pasa
TTITLE14=Thats Why (you go away)
TTITLE15=Please Mr. Postman
TTITLE16=Take Me Home Country Road
TTITLE17=Bridge Over Trouble Water
TTITLE18=Let It Be
EXTD=test and test in Ext disc data
EXTT0=
EXTT1=
EXTT2=
EXTT3=test in Ext track 4 data
EXTT4=
EXTT5=
EXTT6=
EXTT7=
EXTT8=
EXTT9=
EXTT10=
EXTT11=
EXTT12=
EXTT13=
EXTT14=
EXTT15=
EXTT16=
EXTT17=
EXTT18=
PLAYORDER=
